<svg xmlns="http://www.w3.org/2000/svg" version="1.2" width="70" height="70">
  <path d="M70 35c0 19.331-15.67 35-35 35S0 54.331 0 35C0 15.67 15.67 0 35 0s35 15.67 35 35" fill="#dba111" stroke-width=".334"/>
  <path d="M68.832 35c0 18.686-15.146 33.832-33.832 33.832S1.167 53.686 1.167 35 16.314 1.167 35 1.167c18.685 0 33.832 15.147 33.832 33.833" fill="#034694" stroke-width=".334"/>
  <path d="M59.11 35c0 13.316-10.795 24.109-24.11 24.109-13.317 0-24.111-10.793-24.111-24.11 0-13.316 10.794-24.11 24.11-24.11 13.317 0 24.111 10.794 24.111 24.11" fill="#dba111" stroke-width=".334"/>
  <path d="M58.38 35c0 12.913-10.469 23.38-23.38 23.38-12.913 0-23.38-10.467-23.38-23.38 0-12.913 10.467-23.38 23.38-23.38 12.911 0 23.38 10.467 23.38 23.38" fill="#fff" stroke-width=".334"/>
  <path d="M14.966 55.171l.895.853.61-.642-1.82-1.735-.234.245-2.443 2.562.928.883s.783-.822 1.07-1.121c.24.227.814.775.814.775l.611-.64-.813-.777.382-.403M19.355 58.096a1.875 1.875 0 00-.776-1.221 1.886 1.886 0 00-1.405-.331c-.529.09-1.004.398-1.34.866-.333.472-.468 1.022-.378 1.553.083.49.357.921.773 1.218.416.296.918.414 1.409.332.529-.09 1.004-.399 1.338-.869.267-.372.406-.8.406-1.226 0-.106-.008-.216-.027-.322m-2.613 1.361c-.426-.3-.075-.93.173-1.275.247-.349.726-.888 1.152-.587.443.317.029 1.003-.17 1.281-.2.282-.71.898-1.155.581zM22.215 59.068c-.979-.496-2.112-.09-2.632.941-.26.516-.312 1.082-.144 1.59.155.474.492.86.947 1.09.456.231.969.272 1.443.116.509-.166.933-.542 1.192-1.057.523-1.033.175-2.185-.806-2.68m-1.083 2.865a.434.434 0 01-.347-.035c-.195-.1-.263-.276-.263-.474 0-.273.132-.595.243-.815.193-.382.586-.985 1.051-.75a.431.431 0 01.234.257c.078.235 0 .621-.21 1.034-.21.414-.474.706-.708.783zM24.238 60.486l-.18.516s.46.162.6.208l-.99 2.826 1.208.423s.815-2.319.99-2.823l.602.21.293-.835-2.411-.846-.112.32M29.25 61.606l-1.63-.345-.07.332-.73 3.463 1.66.352c.531.11.88-.02 1.08-.15.253-.164.43-.435.498-.759.02-.088.028-.173.028-.257 0-.234-.074-.444-.208-.626.187-.148.32-.358.376-.62.014-.067.023-.143.023-.223 0-.443-.254-1.006-1.026-1.167m-.45 2.644c-.017.079-.049.183-.108.223-.056.036-.162.04-.3.01 0 0-.063-.014-.137-.028l.14-.667c.071.017.162.035.162.035.214.045.255.204.255.319a.47.47 0 01-.011.108zm-.11-1.854c.142.033.248.085.288.147a.208.208 0 01.028.114c0 .028-.004.06-.011.1-.022.101-.052.242-.334.184 0 0-.035-.01-.084-.02l.112-.525zM32.263 62.17l-1.772 3.63 1.012.077.383-.809c.214.018.429.033.639.05l.276.858 1.346.104-1.504-4.663-.38.753M36.26 65.067l-.125-2.945-1.279.054.162 3.875 2.563-.107-.039-.93s-.915.04-1.283.053M39.767 64.696l-.457-2.912-.335.054-.93.145.6 3.833 2.535-.399-.145-.919s-.904.143-1.268.198M47.106 62.118a.81.81 0 01-.512.739.623.623 0 01-.493-.001c-.249-.107-.479-.376-.617-.722-.163-.408-.196-.754-.09-.998.074-.17.218-.298.438-.386.238-.095.464-.008.774.175l.284.168.472-.745-.28-.184a1.855 1.855 0 00-1.704-.187 2.012 2.012 0 00-1.118 1.074 2.067 2.067 0 00.003 1.598c.407 1.019 1.558 1.52 2.565 1.117.727-.29 1.139-.843 1.191-1.598l.024-.336-.926-.07-.011.356M50.09 61.06l-1.438-2.578-.295.167-.823.46 1.892 3.386 2.238-1.25-.453-.813s-.8.446-1.12.627M52.58 55.837l-.275.2-.48.354 1.57 2.14c.072.098.072.162.066.2-.015.11-.13.23-.232.304a.404.404 0 01-.273.063.3.3 0 01-.202-.133l-1.552-2.117-1.035.757 1.545 2.107c.23.311.514.496.846.546.373.059.797-.068 1.19-.36.81-.592.797-1.378.444-1.86l-1.612-2.201M57.293 55.059a1.062 1.062 0 00-.84-.342 1.046 1.046 0 00-.297-.66c-.323-.334-1.047-.594-1.713.054l-1.198 1.158 2.7 2.787 1.218-1.181c.39-.377.475-.743.48-.979.006-.303-.119-.6-.35-.837m-2.04-.094c.04.042.09.092.09.162 0 .057-.031.128-.125.217l-.06.06c-.15-.157-.222-.23-.376-.388.27-.248.383-.142.471-.051zm.64.959c.218-.211.429-.026.489.037.058.059.124.141.124.212v.002c-.001.066-.057.157-.157.255l-.102.097c-.176-.183-.296-.305-.473-.487l.118-.116z" fill="#dba111" stroke-width=".334"/>
  <path d="M14.958 54.812l.893.853.26-.274-1.452-1.385-.058.061-2.267 2.378.559.533 1.07-1.123.815.777.26-.273-.815-.777c.094-.098.641-.673.735-.77M18.431 57.081a1.621 1.621 0 00-1.213-.287c-.464.08-.88.35-1.175.765-.296.416-.414.898-.336 1.36.071.425.31.799.67 1.054.362.258.794.359 1.219.287.462-.077.878-.35 1.173-.761.235-.332.36-.709.36-1.081a1.627 1.627 0 00-.697-1.336m-.328 1.943c-.244.34-.878 1.089-1.509.64-.629-.446-.13-1.29.113-1.633.243-.343.877-1.09 1.505-.644.632.45.134 1.295-.11 1.637zM22.1 59.296c-.85-.43-1.834-.072-2.29.83-.23.454-.275.948-.13 1.396.135.407.426.74.821.938.396.203.84.239 1.249.104a1.825 1.825 0 001.046-.93c.455-.903.157-1.909-.695-2.338m-1.43 2.827c-.689-.346-.323-1.256-.133-1.63.19-.375.705-1.21 1.392-.86a.684.684 0 01.363.405c.135.412-.084.945-.227 1.228-.142.28-.442.773-.855.909a.678.678 0 01-.54-.052zM24.479 60.569l-.098.276.602.211c-.054.151-.99 2.824-.99 2.824l.727.256.99-2.824.602.21.126-.355-1.932-.678-.027.08M29.2 61.854l-1.384-.292-.018.084-.676 3.216 1.411.296c.359.075.657.038.888-.113.2-.13.334-.339.389-.598a1.05 1.05 0 00.022-.204c0-.28-.14-.519-.388-.69a.775.775 0 00.56-.61.777.777 0 00.019-.173c0-.322-.17-.778-.824-.916m-.483.285c.232.049.393.138.475.264.047.072.07.156.07.254a.74.74 0 01-.017.15c-.09.429-.435.424-.634.381 0 0-.211-.043-.333-.07l.217-1.026.222.046zm-.106 1.435c.392.083.454.393.454.58 0 .082-.012.14-.014.15-.04.185-.11.31-.22.38-.114.077-.28.092-.49.049 0 0-.25-.054-.386-.08l.246-1.166.41.087zM32.492 62.282l-1.608 3.292.463.035s.34-.716.386-.807l.981.076.277.858.798.061-1.195-3.703-.102.188m-.176 1.324c.077.248.227.728.277.884l-.683-.052.406-.832zM36.015 65.332l-.125-2.945-.082.003-.688.028.141 3.369 2.055-.087-.018-.42-1.283.052M39.556 64.99l-.458-2.916-.083.013-.68.108.523 3.33 2.032-.32-.066-.417s-1.123.177-1.268.201M47.359 62.123c-.012.44-.27.81-.67.972A.87.87 0 0146 63.09c-.314-.133-.588-.447-.755-.86-.187-.472-.217-.885-.086-1.194.101-.233.295-.408.578-.52.37-.149.709.02.996.19l.072.043.207-.325-.07-.047a1.605 1.605 0 00-1.47-.163c-.45.18-.798.512-.98.938-.185.43-.184.93.006 1.402a1.725 1.725 0 002.236.976c.637-.256.983-.718 1.03-1.378l.005-.086-.407-.028-.004.087M49.992 61.405c-.08-.14-1.439-2.575-1.439-2.575l-.074.042-.6.335 1.643 2.94 1.795-1.002-.204-.368s-.994.554-1.12.628M52.524 56.192l-.07.05-.274.203 1.42 1.936c.095.13.133.26.112.387-.033.231-.243.408-.331.47a.647.647 0 01-.462.111.555.555 0 01-.371-.233l-1.403-1.913-.621.458 1.393 1.9c.188.256.417.407.68.446.415.062.804-.169 1-.311.673-.495.682-1.113.391-1.507l-1.464-1.997M57.11 55.235c-.261-.27-.595-.33-.94-.198a.764.764 0 00.043-.245c0-.2-.08-.395-.24-.56-.217-.223-.779-.499-1.353.06l-1.015.983 2.344 2.42 1.038-1.006c.261-.252.398-.523.401-.797a.913.913 0 00-.278-.657m-1.514-.105c0 .17-.11.309-.2.396l-.243.238c-.095-.098-.638-.657-.73-.756l.161-.156c.318-.309.596-.33.852-.064.117.121.16.236.16.342zm.646 1.756l-.827-.853c.084-.08.3-.292.3-.292.414-.398.833.024.851.044.13.134.195.262.195.388v.005c-.002.14-.083.285-.236.437l-.283.272z" fill="#fff" stroke-width=".334"/>
  <path d="M19.45 11.943l-1.415.381.163.507a1.57 1.57 0 01-.46 1.678 1.22 1.22 0 01-.914.317c-.515-.034-1.097-.368-1.556-.893-.54-.619-.81-1.215-.776-1.72.024-.368.203-.692.547-.993.38-.332.86-.32 1.513-.19l.484.096.314-1.355-.488-.119c-1.048-.26-2.14-.005-2.92.678-1.528 1.336-1.652 3.519-.29 5.076 1.265 1.447 3.461 1.605 4.893.353 1.03-.9 1.39-2.053 1.04-3.329l-.135-.487M23.292 4.847l-1.445.68 1.084 2.3c-.413.193-.812.382-1.224.577l-1.086-2.3-1.903.899 2.898 6.146 1.905-.897s-.898-1.902-1.187-2.518l1.225-.576 1.186 2.516 1.904-.899-2.897-6.145-.46.217M29.734 8.655c-.092-.458-.187-.923-.278-1.38l2.15-.434-.275-1.365-2.151.434-.24-1.188 2.282-.46-.276-1.365-.5.1-3.845.778 1.344 6.662 4.381-.886-.275-1.364-2.317.468M35.948 2.739l-2.107-.044-.01.508-.132 6.286 4.422.093.032-1.472-2.318-.05.113-5.321M42.774 6.166c-.546-.401-.706-.562-.65-.782.026-.113.15-.476.543-.38.236.062.471.186.576.694l.115.565 1.39-.47-.086-.438c-.17-.86-.898-1.593-1.812-1.82-.653-.163-1.31-.076-1.847.247a2.122 2.122 0 00-.979 1.315c-.349 1.393.59 2.064 1.21 2.509.638.455.8.633.702 1.013a.447.447 0 01-.21.28.573.573 0 01-.417.068c-.335-.083-.48-.24-.62-.673l-.171-.519-1.396.571.135.443c.262.861.887 1.404 1.909 1.66 1.149.287 2.543-.241 2.89-1.62.362-1.454-.627-2.183-1.282-2.663M47.8 9.79l1.958.99.628-1.243-1.957-.988.545-1.082 2.079 1.05.626-1.242-3.955-2-.229.454-2.837 5.611 3.988 2.015.63-1.242-2.11-1.065c.21-.417.425-.84.634-1.258M55.678 10.425l-6.338 3.28 1.212 1.054s1.047-.556 1.427-.756l.977.85c-.136.405-.523 1.542-.523 1.542l1.67 1.454 2.71-7.991-1.135.567" fill="#dba111" stroke-width=".334"/>
  <path d="M19.213 12.356l-.748.203.055.17a1.9 1.9 0 01-.56 2.036 1.554 1.554 0 01-1.159.401c-.612-.041-1.263-.409-1.789-1.01-.6-.688-.898-1.368-.859-1.967.03-.455.254-.867.663-1.224.536-.47 1.212-.384 1.802-.267l.162.031.164-.708-.163-.04c-.941-.232-1.919-.005-2.617.605-1.38 1.21-1.49 3.184-.257 4.596 1.143 1.307 3.123 1.45 4.416.32.937-.821 1.252-1.823.934-2.981l-.044-.165M23.436 5.152L22.3 5.69l1.083 2.298-1.839.867c-.125-.268-1.082-2.299-1.082-2.299l-1.292.61 2.609 5.531 1.291-.608s-1.059-2.245-1.186-2.517l1.838-.866 1.187 2.517 1.29-.61-2.61-5.532-.152.071M29.468 9.055l-.412-2.046c.283-.056 2.15-.434 2.15-.434l-.141-.699-2.15.434-.374-1.853c.286-.059 2.281-.46 2.281-.46l-.141-.7L27 4.04l1.21 5.996 3.715-.75-.14-.7-2.318.469M35.601 3.072l-1.427-.031-.003.168-.126 5.947 3.745.08.017-.794-2.318-.049.112-5.321M42.75 4.677c.453.113.715.416.826.953l.038.188.744-.252-.028-.147c-.147-.732-.774-1.359-1.561-1.557-.566-.14-1.13-.067-1.59.21-.416.25-.71.643-.825 1.108-.293 1.168.468 1.713 1.08 2.15.617.441.99.743.831 1.37a.775.775 0 01-.365.49.912.912 0 01-.673.106c-.451-.113-.684-.356-.86-.897l-.057-.173-.772.315.045.148c.224.738.77 1.206 1.667 1.43.987.247 2.182-.2 2.477-1.374.307-1.232-.502-1.828-1.156-2.306-.555-.41-.89-.684-.777-1.137.1-.405.435-.755.955-.625M48.825 7.012c.26.13 2.076 1.049 2.076 1.049l.323-.637-3.35-1.693-.076.151-2.683 5.309 3.381 1.709.323-.637-2.108-1.066c.122-.242.819-1.619.94-1.861l1.956.988.324-.637-1.958-.989.852-1.686M55.834 10.727l-5.894 3.05.659.573 1.426-.756 1.327 1.154-.526 1.54 1.119.972 2.277-6.715-.388.182m-3.126 2.516l1.425-.74c-.161.461-.428 1.222-.53 1.518-.226-.198-.669-.583-.895-.778z" fill="#fff" stroke-width=".334"/>
  <path d="M51.721 34.082c-.483-1.28-2.148-1.837-3.721-1.243a3.485 3.485 0 00-1.56 1.147c1.039-2.966 5.27-3.595 5.27-6.353 0-4.624-6.566-3.33-5.61 0 0-1.51 2.404-1.787 2.404 0 0 1.788-4.192 2.96-4.192 5.98 0 3.33 3.33 3.638 2.993 6.683-.057.525-.622 1.215-1.44 1.215-5.1 0-3.279-6.279-5.061-8.19l.093-1.29c1.03.632 3.764-.848 1.964-3.104 0 1.11-2.31 1.049-2.31-1.048 0-2.836 2.652-1.356 2.78-.73-.127-1.032-.175-1.688-.004-2.283-1.43.46-1.563-.365-1.382-.685.207-.37.484-.802 1.04-.802.302 0 .482.042.589.115.178.122.308-.156.283.103.153-.233.091.058.239-.176.15-.232.353-.494.708-.844l-.015-.523.417.153.4-.647c-.432-.894-1.018-.463-1.449-1.573-.36-.093-5.977.518-5.814-1.723-.458 0-1.543.251-.872 1.163-.522.063-.898-.53-1.685 1.074.986-.185.476.917.476 1.23 0 2.032-2.705 1.998-2.705 1.046-.652.634-.282 2.019.704 2.36 0 0-.375 1.481-1.3 2.42-1.374-.054-3.578-.293-4.846-1.492-.546-.516-.98-.797-1.35-.942v-.671c.541-.265 1.135-.734 1.752-1.518a2.958 2.958 0 00.631-2.424c-.005-.029-.012-.057-.019-.087a2.473 2.473 0 00-.048-.19c-.009-.03-.017-.062-.027-.092a2.706 2.706 0 00-.069-.186c-.01-.026-.018-.053-.03-.077a2.792 2.792 0 00-.114-.236c-.017-.031-.036-.06-.053-.09-.029-.046-.056-.093-.086-.138a6.494 6.494 0 00-.075-.107l-.08-.104c-.03-.037-.06-.076-.092-.113a1.393 1.393 0 00-.066-.07 2.969 2.969 0 00-.258-.249l-.025-.021a2.935 2.935 0 00-.386-.278 3.338 3.338 0 00-2.012-.48c-1.774.141-3.092 1.623-2.944 3.31.115 1.315 1.085 2.365 2.345 2.7-.442.247-.816.39-.9.39l.052.032.017.009a.899.899 0 00.059.033l.016.01.09.044.017.007c.03.014.06.028.09.04a2.337 2.337 0 00.287.1c.015.003.029.006.04.01l.118.028.042.008c.05.01.104.018.157.025l.014.002v.382l-.057.009c-.577.095-.952.272-1.121.786-.169.515.004.702.274 1.063-.228.408-.826.561-.045 1.463-.057.34.015.882.51 1.047.162.055.297.084.439.108v6.759c-.495.262-.739.588-.874.893 0 0-.397-.881-.37.864.45-.35.273.405.273.405-.614.795.166.752.166.752.528-.528.42.239.42.239 0 .936.38 1.302.384 1.304v5.148l-.45.001.005 1.421h.785c-.44.182-.73.617-.688 1.098.053.607.613 1.057 1.25 1.008.638-.051 1.111-.583 1.057-1.19a1.105 1.105 0 00-.692-.92l.725-.002-.003-1.42-.432.002V41.39a1.07 1.07 0 00.416.122c.019.003.038.003.057.004a1.22 1.22 0 01.242-.998 1.94 1.94 0 01.754-.646c.907-.455 2.144-.34 2.514.4 2.343-.617 4.356-2.972 4.356-2.972l1.154 1.963c-2.445.817-7.772 5.447-4.074 7.051-.002.467-.064 3.931-2.286 3.656-3.2-.394-3.997.93-3.383 2.418-.289 1.255.678 1.69.678 1.69-.145-.725.203-1.325 1.526-1.318-.007 1.323.847 1.561.847 1.561.006-1.132.793-1.552 1.492-1.549-.006.934 1.078 1.288 1.078 1.288s-.274-1.075.951-1.288c3.102-.54.189-3.73 4.906-4.61 0 0-2.35-.353-2.35-1.638 0-1.168 2.127-1.968 2.86-1.968 1.5 2.869 3.132 2.892 3.559 2.912.665.743.442 3.246-.518 3.197-3.514-.189-3.385 1.948-2.991 2.386-.045.83.6 1.308.6 1.308 0-.889.846-1.139 1.932-1.08-.057 1.086.635 1.248.635 1.248.019-1.093.828-1.278 1.402-1.248-.042.766.719.992.719.992s-.075-.973.949-.973c1.942 0-.879-4.163 2.911-8.28-3.33 1.542-5.1-2.31-5.1-3.05 1.71 2.002 7.26 2.402 7.26-1.019 0-3.268-3.593-4.485-1.912-5.735.977-.727 2.9.741 1.8 2.258 1.577-.585 2.455-2.112 1.973-3.391m-21.282.103c-1.255.738-2.097 1.672-3.241 2.08a1.079 1.079 0 01-.433.07v-6.378a7.23 7.23 0 012.01.516c.91.498.91 1.525-.239 1.769.727 1.391 3.244.71 3.793-.423.269-.024.506.456.73.91-.354.183-1.077.547-2.62 1.456zm14.05-10.574c-.138.187-.274.373-.394.533.319.529.918.86 1.574.8a1.655 1.655 0 001.49-1.8l-.013-.094c-.097.47-.651.868-1.356.933-.533.05-1.016-.103-1.301-.372z" fill="#d1d3d4" stroke-width=".334"/>
  <path d="M24.208 19.772s-.003.003-.003.005a1.301 1.301 0 01.003-.006m.057 26.754c.002 0 .004 0 .005-.003l-.004.003zm-.04-29.477h.002zm-.48 29.32h.786c-.096.04-.183.092-.261.155a.69.69 0 01.248-.048.712.712 0 110 1.425.707.707 0 01-.676-.498v.064c.054.608.613 1.059 1.251 1.006.637-.05 1.11-.582 1.058-1.189a1.108 1.108 0 00-.692-.917l.724-.003-.004-1.421-.432.002v-4.569a1.102 1.102 0 01-.572-1.186c.27 0 .513.07.674.18-.25.55.372 1.131.372 1.131-.117-.6.241-.997.241-.997.186-.278.452-.494.754-.647.908-.455 2.145-.34 2.514.4 2.344-.617 4.357-2.973 4.357-2.973l1.154 1.962c2.705 0 1.763-2.026 1.587-2.202.622 0 1.498.458 1.498 1.472 0 2.491-7.241 2.846-7.241 5.87 0 1.27 1.258 1.752 1.258 1.752 0 2.757-1.893 4.395-3.188 4.395-2.07 0-3.656-.42-3.656 1.838h.722c-.686.686-.046 1.692-.046 1.692-.145-.724.205-1.324 1.527-1.317h.825c-.524.524-.218 1.319.023 1.561.005-1.133.79-1.552 1.49-1.548h.6c-.164.16.098.905.48 1.286 0 0-.276-1.074.95-1.286 3.101-.54.188-3.731 4.905-4.611 0 0-2.347-.354-2.347-1.639 0-1.167 2.125-1.968 2.856-1.968a4.592 4.592 0 011.594.04c.191 1.851 2.317 1.761 2.78 1.761 1.804 1.804-.458 4.7-.458 4.7-2.768 0-3.864.382-3.864 1.994h.524c-.293.295-.127 1.107.075 1.309 0-.89.848-1.138 1.933-1.081h.57c-.278.278-.229.955.066 1.248.016-1.093.826-1.279 1.402-1.248h.475c-.178.18 0 .75.244.994 0 0-.075-.973.949-.975 1.942 0-.88-4.163 2.913-8.279-3.33 1.542-5.102-2.312-5.102-3.051 1.711 2.003 7.26 2.403 7.26-1.017 0-2.76-2.559-4.057-2.347-5.146a1.633 1.633 0 013.26.147 1.63 1.63 0 01-1.024 1.516c.002 0 .002-.002.002-.002-.002.002-.004.003-.004.006 1.576-.585 2.456-2.112 1.975-3.392-.485-1.28-2.15-1.837-3.722-1.244a3.477 3.477 0 00-1.56 1.148c1.037-2.965 5.27-3.594 5.27-6.353 0-4.624-6.566-3.328-5.611 0 0-.05.003-.099.01-.147.167-1.882 3.53-2.267 3.53.187 0 2.096-4.308 3.257-4.308 6.077 0 2.896 3.183 3.62 3.183 6.668 0 .363-.192 1.926-2.306 1.926-2.04 0-3.021-1.14-3.578-2.628-1.04-2.008-.658-5.142-1.828-6.395l.093-1.289c1.03.633 3.765-.849 1.97-3.105 0 1.111-2.313 1.048-2.313-1.047 0-2.836 2.65-1.356 2.779-.73-.127-1.033-.177-1.69-.003-2.283-1.431.46-1.563-.366-1.385-.687.21-.37.486-.801 1.042-.801.804 0 .753.295.71.71.308-.464.395-.813 1.109-1.511l-.015-.525.414.154.403-.647c-.43-.895-1.017-.462-1.45-1.572-.358-.094-5.08-.53-4.917-2.771-.418 0-1.556 1.44-.786 2.212h-.98c-.525.062-1.749-.304-2.534 1.298 1.934-1.933 3.189 2.68-.373 2.68v-.001c-.525 0-.976-.218-1.007-.589-.354 1.557 1.89 2.042 1.89 2.042 0 .462-1.125 2.966-1.67 3.512.367.368.482 2.592-1.22 2.592.613-1.66-1.192-3.067-2.945-3.997h.002a5.043 5.043 0 01-.9-.444c-1.076-.492-1.951-.769-1.951-.769v-1.3c.54-.266 1.134-.735 1.751-1.519a2.951 2.951 0 00.63-2.424 2.62 2.62 0 00-.094-.369 2.978 2.978 0 00-.067-.186l-.03-.076a3.293 3.293 0 00-.115-.235c-.016-.032-.036-.061-.053-.092l-.085-.137-.076-.108c-.026-.034-.052-.07-.08-.103a2.021 2.021 0 00-.158-.184 3.023 3.023 0 00-.257-.247c-.01-.007-.017-.017-.026-.024a2.51 2.51 0 00-.158-.123c-.015-.009-.028-.021-.042-.031a3.289 3.289 0 00-.176-.117l-.01-.006a3.331 3.331 0 00-2.012-.48 3.597 3.597 0 00-.464.073c-1.021.391-1.765 1.587-1.765 3.002 0 1.333.662 2.47 1.591 2.923.013.004.026.01.04.012-.443.247-.817.39-.902.39l.054.033.016.008.059.032c.005.003.01.006.017.008.026.015.057.031.09.047.005.002.011.004.016.008l.091.039c.01.004.017.008.027.01.079.032.165.062.26.09.014.002.027.006.04.01.038.01.077.018.117.027l.042.009a2.13 2.13 0 00.17.028c.338.028.738-.056.738-.056v.754c-.06 0-.592-.171-.738-.317l-.057.01c-.576.095-.95.272-1.12.786-.168.516.005.702.275 1.064-.23.406-.826.56-.047 1.462-.056.34.015.883.51 1.048.163.055.297.082.439.108.293 0 .738.245.738.853v5.809c.267.015.557.051.82.074v-6.38c.304.03 1.091.137 2.01.516.01.005.018.011.027.017h-.001c.084.01.169.028.253.053.612.188.993.719.85 1.189-.143.47-.757.698-1.367.51.725 1.393 3.244.712 3.792-.422.268-.024.506.456.73.91 0 0 .63.24 2.193.24 0 0-6.325 4.039-8.155 4.039-.781 0-2.515 0-2.515.591-.476 0-1.163.81-1.163 1.273.45-.352.817-.352.817-.352.384 0 .6.115.6.115-.14.139-.772.851-.772 1.404.529-.53.76-.527.76-.527s.552-.071.749.127c-.133.132-.366.61-.366 1.177 0 0 .328-.633.738-.633v6.072c0 .185-.838.363-1.183.363m.257-17.602c-.156.006-.23-.197-.23-.27-.005-.074.054-.28.21-.287.37-.013 1.111.165 1.114.238.003.073-.723.306-1.094.32zm-.239-1.002c-.214-.015-.285-.306-.278-.408.007-.1.12-.377.334-.362.513.039 1.507.396 1.5.497-.007.103-1.043.31-1.556.273zm-.088-1.284c-.227-.06-.246-.385-.218-.493.028-.107.204-.382.432-.323.543.142 1.54.725 1.51.832-.027.107-1.181.126-1.724-.016zm1.68-3.618c.094-.224.074-.531.016-.82h-.03c-.652 0-1.18-.528-1.18-1.18a.72.72 0 01.043-.319 1.181 1.181 0 012.318.32c0 .753-.53 1.446-1.167 2z" fill="#034694" stroke-width=".334"/>
  <path d="M43.08 23.128a1.652 1.652 0 003.063-1c-.003-.033-.009-.063-.013-.096-.096.47-.653.869-1.356.934-.535.05-1.018-.103-1.302-.372l-.392.534" fill="#ed1c24" stroke-width=".334"/>
  <path d="M40.875 20.065l.57.03-.285.392s-.381.12-.285-.422m-1.36 0h.82s-.029.663.571.723l-.127.21s-1.613-.42-1.265-.933z" fill="#fff" stroke-width=".334"/>
  <path d="M25.401 25.73c.029-.107-.968-.69-1.51-.832-.229-.059-.405.216-.433.323-.028.107-.01.433.218.493.543.142 1.697.123 1.725.016m-.082.995c.009-.1-.985-.458-1.498-.497-.215-.016-.328.262-.335.362-.007.102.064.393.279.408.512.038 1.548-.17 1.554-.273zm-1.128-3v.381c.145.146.677.317.738.317v-.754s-.4.084-.738.056zm-.208 3.718c-.156.006-.215.213-.21.287 0 .073.075.276.23.27.371-.013 1.097-.246 1.094-.319-.003-.073-.744-.25-1.114-.238zm-.763 10.06c-.613.795-.172 1.52-.172 1.52 0-.553.631-1.266.772-1.405 0 0-.216-.114-.6-.114zm1.956 1.686a1.102 1.102 0 00.861 1.29c.044.01.085.016.128.02l.056.002s-.621-.582-.371-1.131c-.162-.111-.404-.181-.674-.181zm-1.122-16.215c-.93-.453-1.591-1.59-1.591-2.924 0-1.414.743-2.61 1.764-3.001-1.533.34-2.614 1.702-2.48 3.238.116 1.301 1.066 2.341 2.307 2.687zm9.87-3.263c.986-.186 1.321.692 1.321 1.006 0 1.189-.926 1.668-1.694 1.673 3.562 0 2.306-4.612.373-2.679zm-2.381 10.235c1.702 0 1.588-2.223 1.22-2.591.546-.546 1.67-3.05 1.67-3.512 0 0-2.247-.485-1.888-2.044v-.003l-.03-.005c-.613.646-.24 1.993.73 2.33 0 0-.375 1.481-1.3 2.42-.921-.035-2.212-.157-3.347-.59 1.754.93 3.559 2.336 2.945 3.996zm-6.65-10.674c.44-.035.828.277.866.697.036.419-.291.789-.732.824-.442.035-.83-.277-.866-.697 0 .651.529 1.18 1.181 1.18h.03c.058.288.078.595-.016.82.637-.554 1.167-1.247 1.167-2a1.182 1.182 0 00-2.318-.319.798.798 0 01.689-.505zm12.545-.86c-.77-.77.367-2.212.785-2.212-.457 0-2.439 1.298-1.766 2.212h.98zM27.52 31.225c.61.187 1.225-.041 1.368-.51.143-.47-.238-1.001-.85-1.19a1.548 1.548 0 00-.254-.053c.884.504.873 1.514-.264 1.753zm-1.77-6.488s.874.277 1.95.769a3.773 3.773 0 01-.6-.457c-.547-.516-.982-.798-1.35-.94zm.331 11.255c1.83 0 8.155-4.039 8.155-4.039-1.563 0-2.194-.241-2.194-.241-.352.183-1.076.547-2.619 1.455-1.255.74-2.097 1.674-3.241 2.081a1.066 1.066 0 01-.433.072c-.263-.023-.553-.059-.82-.075v-5.808c0-.609-.445-.854-.738-.854v6.76c-.495.262-.739.587-.872.892 0 0-.944-.126-.917 1.62 0-.463.687-1.273 1.164-1.273 0-.59 1.733-.59 2.515-.59zm15.778 9.35c-.464 0-2.59.09-2.78-1.762a4.6 4.6 0 00-1.595-.04c1.503 2.87 3.134 2.892 3.561 2.914.665.741.442 3.244-.518 3.194-3.513-.187-3.385 1.95-2.991 2.388 0-1.612 1.096-1.994 3.864-1.994 0 0 2.262-2.896.459-4.7zm.722 6.922h-.475c-.04.768.72.994.72.994-.245-.245-.423-.815-.245-.994zm-4.446 1.08c-.202-.202-.369-1.013-.075-1.308h-.524c-.044.83.599 1.309.599 1.309zm10.489-26.687c0-2.454-3.366-2.069-3.532-.185.149-1.38 2.397-1.585 2.397.145 0 1.788-4.193 2.96-4.193 5.98 0 3.33 3.329 3.638 2.992 6.682-.057.527-.622 1.216-1.439 1.216-1.752 0-2.69-.744-3.235-1.795.557 1.488 1.537 2.628 3.578 2.628 2.114 0 2.306-1.562 2.306-1.925 0-3.048-3.183-3.772-3.183-6.669 0-2.82 4.309-3.982 4.309-6.077zM23.807 38.496c0 .94.384 1.304.384 1.304 0-.567.232-1.046.366-1.178-.197-.198-.75-.126-.75-.126zm24.318-5.194c-.854 0-1.554.654-1.627 1.488.039-.2.172-.395.432-.59.98-.727 2.897.738 1.803 2.252a1.633 1.633 0 00-.608-3.15zm-7.487 18.962h-.57c-.059 1.085.636 1.248.636 1.248-.295-.294-.344-.97-.066-1.248zm-16.12-5.789a.693.693 0 00-.249.048 1.065 1.065 0 00-.426.88c.09.289.357.498.675.498a.712.712 0 100-1.426zm4.009 5.27h-.825c-.007 1.323.848 1.562.848 1.562-.241-.242-.547-1.038-.023-1.561zm2.558-8.36c0-3.023 7.241-3.378 7.241-5.869 0-1.014-.875-1.472-1.498-1.472.176.176 1.118 2.202-1.587 2.202-2.445.818-7.771 5.448-4.075 7.053-.001.465-.064 3.93-2.284 3.658-3.199-.396-3.997.926-3.383 2.414 0-2.258 1.586-1.838 3.656-1.838 1.295 0 3.188-1.638 3.188-4.395 0 0-1.258-.483-1.258-1.752zm-6.156 1.854v-6.072c-.41 0-.738.633-.738.633v5.18-.033l-.449.001.004.654c.345 0 1.183-.178 1.183-.364zm1.246 7.823s-.64-1.005.046-1.69h-.722c-.29 1.255.676 1.69.676 1.69zm4.464-1.303h-.598c-.005.933 1.08 1.286 1.08 1.286-.383-.38-.644-1.126-.482-1.286z" fill="#6a7ab5" stroke-width=".334"/>
  <path fill="none" stroke-width=".334" d="M60.068 28.059"/>
  <path d="M10.503 41.679l-.04-.123-.017-.127c-.058-.437-.164-1.25-.792-1.396a.85.85 0 00-.526.057.852.852 0 00-.016-.528c-.232-.602-1.051-.595-1.492-.589h-.13l-.127-.023c-.432-.08-1.24-.23-1.57.322a.848.848 0 00-.11.517.846.846 0 00-.506-.148c-.644.034-.89.816-1.023 1.237l-.04.122-.06.114c-.21.387-.602 1.106-.18 1.593.113.13.265.217.46.263a.844.844 0 00-.296.439c-.169.622.5 1.097.857 1.352l.105.077.09.092c.304.32.868.914 1.46.663a.855.855 0 00.392-.355.863.863 0 00.325.418c.54.35 1.199-.138 1.553-.398l.104-.077.117-.057c.397-.19 1.138-.542 1.082-1.184a.846.846 0 00-.216-.482.843.843 0 00.496-.18c.502-.405.24-1.182.1-1.6" fill="#fff" stroke-width=".334"/>
  <path d="M7.68 42.2c3.605 2.13 2.495-.213 2.416-.56-.08-.345-.11-2.937-2.416.56M7.454 42.733c-.913 4.085.972 2.307 1.277 2.126.304-.183 2.76-1.014-1.277-2.126M6.875 42.683c-4.17.394-1.894 1.638-1.627 1.87.268.232 1.816 2.312 1.627-1.87M6.744 42.116C5.08 38.273 4.6 40.82 4.46 41.149c-.138.324-1.638 2.44 2.283.967" fill="#ed1c24" stroke-width=".334"/>
  <path d="M66.294 41.114l-.06-.114-.04-.122c-.132-.42-.378-1.203-1.02-1.237a.853.853 0 00-.509.147.862.862 0 00-.108-.516c-.333-.553-1.138-.402-1.571-.322l-.129.023h-.129c-.438-.006-1.259-.013-1.49.589a.844.844 0 00-.017.528.846.846 0 00-.525-.057c-.628.145-.736.959-.791 1.396l-.02.127-.038.123c-.141.417-.402 1.194.1 1.6a.84.84 0 00.496.18.847.847 0 00-.216.482c-.056.642.684.994 1.082 1.184l.115.057.105.077c.355.26 1.014.748 1.553.398a.848.848 0 00.325-.418c.105.17.233.287.392.355.593.25 1.157-.343 1.46-.664l.091-.091.104-.078c.359-.254 1.026-.73.859-1.352a.848.848 0 00-.297-.438.842.842 0 00.458-.264c.424-.486.033-1.205-.18-1.593" fill="#fff" stroke-width=".334"/>
  <path d="M63.107 41.818c-3.14-2.77-.569-2.44-.215-2.47.352-.03 2.827-.803.215 2.47M62.67 42.2c-3.605 2.13-2.497-.213-2.416-.56.079-.345.109-2.937 2.416.56M62.896 42.733c.913 4.085-.973 2.307-1.277 2.126-.304-.183-2.759-1.014 1.277-2.126M63.474 42.683c4.17.394 1.895 1.638 1.627 1.87-.266.232-1.816 2.312-1.627-1.87M63.604 42.116c1.665-3.843 2.144-1.295 2.283-.967.138.324 1.638 2.44-2.283.967" fill="#ed1c24" stroke-width=".334"/>
  <path d="M64.414 42.236c-.004-.034-.015-.063-.02-.096l.697-.51-.035-.077-.826.144a1.25 1.25 0 00-.946-.597l-.252-.764-.085.007-.114.795a1.244 1.244 0 00-.628.401 1.313 1.313 0 00-.204.352l-.838.001-.019.084.773.378c.001.033-.003.067 0 .101.028.327.181.62.428.834l-.277.863.072.043s.338-.35.64-.66a1.247 1.247 0 00.973-.083l.742.536.065-.055-.423-.8c.207-.255.304-.572.277-.898" fill="#fff" stroke-width=".334"/>
  <path d="M63.1 41.608a.722.722 0 00-.502.262.74.74 0 10.503-.261M7.242 41.818c3.14-2.77.569-2.44.216-2.47-.353-.03-2.829-.803-.216 2.47" fill="#ed1c24" stroke-width=".334"/>
  <path d="M8.431 42.354c.374-.181.773-.377.773-.377l-.018-.084-.839-.001a1.26 1.26 0 00-.203-.352 1.244 1.244 0 00-.628-.401l-.113-.796-.087-.007-.249.764a1.25 1.25 0 00-.948.598l-.828-.145-.032.078.695.51c-.005.032-.015.062-.019.095a1.25 1.25 0 00.278.898l-.424.8.066.056.742-.537a1.262 1.262 0 00.973.084l.639.66.074-.044-.278-.862c.246-.215.399-.508.428-.835.003-.034-.002-.067-.002-.101" fill="#fff" stroke-width=".334"/>
  <path d="M7.752 41.87a.74.74 0 10-1.137.95.74.74 0 001.137-.95" fill="#ed1c24" stroke-width=".334"/>
  <path d="M7.701 24.395a3.239 3.239 0 00-3.746 2.623 3.238 3.238 0 002.623 3.747 3.238 3.238 0 003.747-2.624 3.237 3.237 0 00-2.624-3.746" fill="#fff" stroke-width=".334"/>
  <path d="M8.433 26.841a5.696 5.696 0 01-.137-.089l-.8-.53-.211-.143c-.231-.155-.438-.29-.632-.402a4.046 4.046 0 00-.22-.118 2.536 2.536 0 00-.956-.28 2.87 2.87 0 00-.693.714c.804.29 1.59.755 3.224 1.77.094-.216.407-.881.425-.922M7.68 28.575c.032-.082.176-.445.235-.585-1.676-1.041-2.454-1.502-3.26-1.786-.125.224-.218.469-.28.73.46.631 1.694 1.252 3.305 1.64M7.498 25.93c.627-.37 1.34-.27 1.89-.082a2.849 2.849 0 00-.742-.677c-.52-.103-1.238-.12-1.809.335.208.122.422.264.661.424" fill="#ed1c24" stroke-width=".334"/>
  <path d="M4.995 28.928a3.43 3.43 0 00.853.43c.087.032.176.063.266.092.314.103 1.036.29 1.09.303.01-.028.28-.696.383-.95-1.249-.31-2.617-.852-3.267-1.557-.039.326-.023.648.045.953.137.299.358.537.63.729M7.245 30.014l-.26-.067c-.242-.061-.504-.13-.77-.212.13.277.334.493.552.66.292.039.58.031.857-.017-.2-.155-.379-.364-.379-.364M9.858 26.755a2.85 2.85 0 00-.235-.556c-.493-.22-1.243-.435-1.898-.114l.904.596a4.591 4.591 0 01.764-.004c.177.015.328.044.465.078M9.395 26.92c-.026 1.485-.726 2.63-1.33 3.347a2.847 2.847 0 001.875-2.193c.064-.359.053-.712-.014-1.048a2.693 2.693 0 00-.53-.105M6.612 25.38c.422-.373.922-.499 1.382-.509a2.824 2.824 0 00-2.205.211c.29.057.553.159.823.298" fill="#ed1c24" stroke-width=".334"/>
  <path d="M8.663 26.922a21.56 21.56 0 00-.446.971c-.032.076-.064.149-.095.225l-.205.514-.092.228-.399.988a1.7 1.7 0 00.375.358c.593-.676 1.33-1.812 1.353-3.3-.15-.005-.314 0-.49.016M5.916 29.637a5.215 5.215 0 01-.585-.238c.07.217.17.409.273.574.212.136.446.244.695.32a1.813 1.813 0 01-.383-.656M5.038 29.24c-.135-.082-.26-.172-.377-.27.132.235.298.45.49.64a2.346 2.346 0 01-.113-.37" fill="#ed1c24" stroke-width=".334"/>
  <path d="M59.674 28.142a3.238 3.238 0 003.746 2.623 3.24 3.24 0 002.624-3.746 3.24 3.24 0 00-3.747-2.624 3.238 3.238 0 00-2.623 3.747" fill="#fff" stroke-width=".334"/>
  <path d="M61.565 26.841l.139-.089c.265-.176.785-.52.798-.53l.213-.143c.228-.155.437-.29.632-.402.074-.042.148-.082.22-.118.308-.156.605-.25.955-.28.27.194.504.435.691.714-.804.29-1.586.755-3.223 1.77a58.285 58.285 0 00-.425-.922M62.32 28.575c-.034-.082-.179-.445-.234-.585 1.672-1.041 2.452-1.502 3.258-1.786.124.224.218.469.28.73-.461.631-1.694 1.252-3.304 1.64M62.501 25.93c-.628-.37-1.34-.27-1.891-.082.205-.265.455-.497.744-.677.519-.103 1.236-.12 1.807.335-.206.122-.422.264-.66.424" fill="#ed1c24" stroke-width=".334"/>
  <path d="M65.002 28.928a2.84 2.84 0 01-.26.163c-.184.102-.384.19-.59.266a6.212 6.212 0 01-.268.093c-.312.103-1.034.29-1.088.303-.012-.028-.283-.696-.384-.95 1.249-.31 2.615-.852 3.267-1.557.04.326.022.648-.045.953a1.82 1.82 0 01-.632.729M62.754 30.014l.259-.067c.242-.061.506-.13.772-.212a1.836 1.836 0 01-.552.66c-.292.039-.581.031-.856-.017.197-.155.377-.364.377-.364M60.141 26.755c.06-.193.136-.381.237-.556.49-.22 1.24-.435 1.895-.114l-.903.596a4.6 4.6 0 00-.765-.004 2.926 2.926 0 00-.464.078M60.604 26.92c.025 1.485.727 2.63 1.33 3.347a2.84 2.84 0 01-1.875-2.193 2.799 2.799 0 01.015-1.048c.145-.046.322-.084.53-.105M63.388 25.38c-.423-.373-.923-.499-1.383-.509a2.822 2.822 0 012.204.211 3.02 3.02 0 00-.82.298" fill="#ed1c24" stroke-width=".334"/>
  <path d="M61.336 26.922c.216.448.34.722.448.971.031.076.06.149.093.225l.205.514.091.228.4.988c-.11.146-.243.265-.375.358-.592-.676-1.33-1.812-1.352-3.3.149-.005.314 0 .49.016M64.083 29.637c.2-.068.397-.147.586-.238a2.686 2.686 0 01-.274.574 2.833 2.833 0 01-.695.32c.162-.181.3-.397.383-.656M64.962 29.24c.133-.082.259-.172.376-.27a2.84 2.84 0 01-.49.64c.045-.119.086-.24.114-.37" fill="#ed1c24" stroke-width=".334"/>
</svg>
